<svg width="433" height="150" viewBox="0 0 433 150" fill="none" xmlns="http://www.w3.org/2000/svg">
<path fill-rule="evenodd" clip-rule="evenodd" d="M273.054 60.7032H0V110.263H273.054V60.7032Z" fill="#FF267E"/>
<path d="M88.3505 84.5554H72.0698V79.7519H91.743V73.0931H62.6228V97.8729H72.0698V91.2142H88.3505V84.5554Z" fill="#000055"/>
<path d="M140.066 89.5909L131.414 73.0931H120.587L134.612 97.8729H145.374L159.382 73.0931H148.701L140.066 89.5909Z" fill="#000055"/>
<path d="M182.415 91.9264H171.118V88.1664H182.415C183.632 88.1664 184.493 88.9449 184.493 90.0381C184.493 91.1479 183.632 91.9264 182.415 91.9264ZM171.118 79.0396H181.652C182.87 79.0396 183.73 79.8181 183.73 80.9113C183.73 82.0045 182.87 82.783 181.652 82.783H171.118V79.0396ZM189.622 85.2842C192.089 84.0585 193.242 82.137 193.242 79.9506C193.242 75.8758 189.882 73.0765 183.243 73.0765H161.914V97.8563H183.714C190.823 97.8563 193.988 94.9907 193.988 90.8497C194.005 88.5473 192.625 86.4437 189.622 85.2842Z" fill="#000055"/>
<path d="M207.915 88.1664H224.163V82.7997H207.915V79.7519H225.868V73.0931H198.468V97.8729H226.306V91.2142H207.915V88.1664Z" fill="#000055"/>
<path d="M230.185 73.0931V79.7519H240.785V97.8729H250.313V79.7519H260.912V73.0931H230.185Z" fill="#000055"/>
<path d="M103.966 87.7854L108.105 79.8016L112.26 87.7854H103.966ZM102.716 73.0931L88.7078 97.8729H98.7391L100.638 94.2289H115.62L117.52 97.8729H127.957L113.948 73.0931H102.716Z" fill="#000055"/>
<path d="M12.2224 82.7996L20.5819 97.8729H31.3274L22.9517 82.7996H12.2224Z" fill="#000055"/>
<path d="M39.6871 82.7996L31.3276 97.8729H42.057L50.4327 82.7996H39.6871Z" fill="#000055"/>
<path d="M31.3278 67.776L22.9521 82.7996H39.6873L31.3278 67.776Z" fill="#000055"/>
<path fill-rule="evenodd" clip-rule="evenodd" d="M389.373 147.814C388.09 147.814 386.873 147.168 386.126 146.091C379.552 136.467 350.01 93.235 346.65 88.332C345.4 86.4934 345.4 84.4726 346.65 82.6339L357.201 67.1962C368.417 50.7813 385.688 25.5211 386.142 24.8419C386.873 23.7818 388.074 23.1524 389.34 23.1524C390.622 23.1524 391.84 23.7984 392.57 24.8585C393.106 25.637 431.121 81.2591 432.063 82.6505C433.313 84.4891 433.313 86.5099 432.063 88.3485L430.569 90.535C403.154 130.637 394.794 142.894 392.603 146.107C391.872 147.168 390.655 147.814 389.373 147.814Z" fill="#0069B2"/>
<path fill-rule="evenodd" clip-rule="evenodd" d="M430.358 87.1063C429.644 88.1498 396.271 136.964 390.882 144.865C390.152 145.942 388.577 145.942 387.83 144.865C382.669 137.295 351.86 92.2411 348.354 87.1063C347.608 86.0296 347.608 84.9364 348.354 83.8597C350.627 80.5304 387.165 27.0616 387.847 26.0677C388.561 25.0076 390.119 25.0242 390.849 26.0843C391.58 27.1444 429.579 82.7499 430.342 83.8597C431.105 84.953 431.105 86.0296 430.358 87.1063Z" fill="white"/>
<path fill-rule="evenodd" clip-rule="evenodd" d="M389.762 142.281C389.551 142.596 389.194 142.596 388.967 142.281L350.545 86.0462C350.334 85.7315 350.334 85.2014 350.545 84.8867L388.967 28.6517C389.178 28.337 389.535 28.337 389.762 28.6517L428.183 84.8867C428.394 85.2014 428.394 85.7149 428.183 86.0462L389.762 142.281Z" fill="#004288"/>
<path fill-rule="evenodd" clip-rule="evenodd" d="M389.519 140.525C389.437 140.641 389.308 140.641 389.226 140.525L351.763 85.6983C351.682 85.5823 351.682 85.3836 351.763 85.2676L389.226 30.4406C389.308 30.3246 389.437 30.3246 389.519 30.4406L426.982 85.2676C427.063 85.3836 427.063 85.5823 426.982 85.6983L389.519 140.525Z" fill="#0069B2"/>
<path fill-rule="evenodd" clip-rule="evenodd" d="M402.634 99.3967C399.225 103.587 393.95 105.592 388.561 104.598C393.658 99.9434 397.261 90.0215 397.391 81.6566C397.05 81.3254 396.287 80.845 396.287 80.845C396.287 80.845 396.222 81.2757 395.979 81.1763C393.999 80.3481 391.726 78.7911 390.2 76.2071C389.73 75.4285 389.307 74.4844 388.934 73.4409C391.937 71.5029 394.404 68.9189 396.109 66.0864C400.8 68.2729 404.225 72.447 405.864 77.3003C408.672 85.6486 406.838 94.2288 402.634 99.3967ZM377.15 106.569C375.705 106.47 374.407 105.724 374.26 104.73C374.131 103.786 374.861 103.206 375.835 103.223C377.247 103.256 379.471 104.879 381.224 105.741C380.007 106.403 378.351 106.652 377.15 106.569ZM387.895 64.4797C388.48 64.4631 389.096 64.4631 389.713 64.4963C390.72 64.546 391.694 64.695 392.635 64.8938C391.515 66.7987 390.038 68.6042 388.041 70.1115C387.733 68.2894 387.636 66.3514 387.895 64.4797ZM393.869 56.7112C395.119 57.0093 395.265 58.9307 394.339 61.2497C393.852 61.1835 393.349 61.1338 392.846 61.1006C391.45 61.0012 390.103 60.9681 388.804 61.0178C390.152 57.5228 392.424 56.3633 393.869 56.7112ZM416.496 83.4952C416.171 72.3808 408.413 64.5625 398.154 61.962C398.608 60.7859 399.03 59.5602 399.241 58.5166C399.972 54.8891 398.69 52.5536 396.206 52.1063C392.31 51.4107 387.311 54.9554 385.347 61.3491C375.478 62.7736 368.628 68.5545 366.226 75.2298C363.856 81.8223 366.226 87.3878 370.397 89.0608C374.666 90.7834 378.627 88.4313 379.796 85.4167C379.568 85.251 378.692 84.5885 378.692 84.5885C378.692 84.5885 378.367 84.986 378.075 84.8204C375.656 83.5615 373.871 80.6462 374.179 76.5218C374.569 71.271 378.465 66.4508 384.584 64.9435C384.292 67.3618 384.276 69.7802 384.438 72.2151C383.561 72.5961 382.62 72.9274 381.597 73.2255C381.435 74.2194 380.396 75.793 380.396 75.793L381.516 76.4721C382.62 76.2568 383.707 75.942 384.73 75.5445C385.412 81.5904 386.743 87.5866 386.84 93.3509C386.889 96.8956 386.305 100.888 384.341 103.322C381.159 101.981 378.903 100.242 376.614 99.844C373.4 99.2808 370.754 101.384 371.128 104.498C371.387 106.784 373.952 108.855 377.296 109.07C379.925 109.236 382.782 108.358 384.714 107.215C386.694 108.01 389.194 108.805 391.661 108.954C407.114 109.898 416.886 97.0447 416.496 83.4952Z" fill="#004288"/>
<path fill-rule="evenodd" clip-rule="evenodd" d="M401.53 98.5852C398.121 102.776 392.846 104.78 387.457 103.786C392.554 99.1153 396.157 89.21 396.287 80.8451C394.096 80.2488 391.012 78.609 389.113 75.3955C388.642 74.617 388.22 73.6729 387.847 72.6293C390.85 70.6913 393.317 68.1074 395.021 65.2749C399.712 67.4614 403.137 71.6355 404.777 76.4888C407.568 84.8371 405.75 93.4172 401.53 98.5852ZM376.062 105.757C374.618 105.658 373.319 104.913 373.173 103.919C373.027 102.975 373.773 102.395 374.747 102.412C376.16 102.445 378.383 104.068 380.136 104.929C378.903 105.575 377.263 105.84 376.062 105.757ZM386.808 63.6682C387.392 63.6351 388.009 63.6516 388.626 63.6847C389.632 63.7344 390.606 63.8835 391.548 64.0823C390.411 65.9706 388.95 67.7595 386.954 69.2503C386.629 67.4448 386.548 65.5068 386.808 63.6682ZM392.797 55.8499C394.08 56.1812 394.372 58.0695 393.382 60.4548C392.846 60.3885 392.294 60.3222 391.742 60.2891C390.346 60.1897 388.999 60.1566 387.701 60.2229C389.064 56.6616 391.369 55.469 392.797 55.8499ZM415.392 82.6837C415.068 71.5692 407.309 63.751 397.05 61.1504C397.521 59.9413 397.894 58.6824 398.089 57.5726C398.706 53.8126 397.586 51.7255 395.102 51.2783C391.207 50.5826 386.207 54.1273 384.243 60.521C374.374 61.9455 367.524 67.7264 365.122 74.4017C362.752 80.9942 365.122 86.5597 369.293 88.2327C373.562 89.9553 377.539 87.6032 378.692 84.5886C375.462 84.0088 372.718 80.7457 373.092 75.7103C373.481 70.4594 377.377 65.6393 383.496 64.132C383.204 66.5172 383.188 68.919 383.334 71.3373C382.458 71.7183 381.516 72.0496 380.494 72.3312C380.218 74.0207 380.412 75.6771 380.412 75.6771C381.516 75.4452 382.587 75.1305 383.626 74.7495C384.308 80.7789 385.639 86.7916 385.736 92.5559C385.785 96.1006 385.201 100.093 383.237 102.527C380.072 101.186 377.799 99.4465 375.51 99.049C372.296 98.4858 369.667 100.589 370.024 103.704C370.284 105.989 372.848 108.06 376.192 108.275C378.822 108.457 381.678 107.563 383.61 106.42C385.574 107.215 388.09 108.01 390.557 108.159C406.026 109.07 415.798 96.2166 415.392 82.6837Z" fill="white"/>
<path d="M384.633 122.007L383.838 121.377L382.815 118.744L381.727 120.069V122.007H380.737L379.942 121.377L380.737 120.98V115.381L380.916 114.768L381.727 115.381V118.396L384.487 114.967L384.779 114.768L385.574 115.381L383.464 117.982L385.802 122.007H384.633Z" fill="#004288"/>
<path d="M390.557 122.007L389.746 121.377L390.557 117.187L387.652 122.007H386.759L385.948 121.377L386.759 115.381L386.938 114.768L387.733 115.381V119.837L390.736 114.768L391.531 115.381V122.007H390.557Z" fill="#004288"/>
<path d="M394.502 114.454L393.707 113.841L394.599 112.83L395.395 113.46V114.47H394.502V114.454ZM393.479 122.007L392.684 121.394L393.674 114.768L394.47 115.381V122.007H393.479ZM392.473 114.454L391.678 113.841L392.57 112.83L393.366 113.443V114.454H392.473Z" fill="#004288"/>
<path d="M398.803 119.075H397.261V121.096H398.803C399.453 121.096 399.875 120.715 399.875 120.085C399.875 119.472 399.453 119.075 398.803 119.075ZM398.722 116.276H397.261V117.982H398.722C399.372 117.982 399.534 117.816 399.534 117.22C399.534 116.64 399.372 116.276 398.722 116.276ZM398.901 122.007H396.271L395.476 121.394L396.271 115.398L399.323 115.199C399.323 115.199 399.875 115.58 400.216 115.878C400.556 116.193 400.751 116.64 400.751 117.17C400.751 117.833 400.459 118.33 399.875 118.611C400.508 118.926 400.849 119.39 400.849 120.152C400.865 121.278 400.118 122.007 398.901 122.007Z" fill="#004288"/>
<path d="M386.256 7.39999H379C377.994 4.20313 376.858 0.608729 376.777 0.360268C376.63 -0.120089 376.046 -0.120089 375.9 0.360268C375.835 0.592165 374.65 4.31908 373.66 7.39999H366.388C365.901 7.39999 365.739 7.96317 366.112 8.24476C366.307 8.39384 369.407 10.6797 371.988 12.5845C370.998 15.682 369.829 19.3758 369.748 19.6077C369.602 20.0881 370.073 20.4193 370.462 20.1378C370.657 19.9887 373.741 17.7028 376.306 15.798C378.887 17.7194 381.971 20.0052 382.166 20.1543C382.555 20.4359 383.026 20.1046 382.88 19.6243C382.799 19.3924 381.63 15.682 380.64 12.5845C383.221 10.6797 386.321 8.37727 386.516 8.2282C386.905 7.96317 386.743 7.39999 386.256 7.39999Z" fill="#E8B21F"/>
<path d="M373.352 12.1539L368.515 8.57609L366.112 8.24481L371.988 12.6012L373.352 12.1539Z" fill="#C68917"/>
<path d="M378.156 8.57607L378.984 7.40002L376.76 0.360291L376.322 2.79521L378.156 8.57607Z" fill="#C68917"/>
<path d="M371.517 17.9181L370.462 20.1543L376.306 15.7979L376.322 14.3569L371.517 17.9181Z" fill="#C68917"/>
<path d="M386.71 7.6982C386.597 7.73132 384.811 8.34419 384.113 8.57609L379.292 12.1539L381.126 17.9348C381.711 18.7464 382.717 20.1875 382.733 20.1875C382.879 20.0881 382.961 19.8728 382.88 19.6409C382.798 19.409 381.63 15.6986 380.639 12.6012C383.22 10.6963 386.321 8.39389 386.515 8.24481C386.726 8.09573 386.775 7.8804 386.71 7.6982Z" fill="#C68917"/>
<path d="M412.341 7.39999H405.085C404.079 4.20313 402.942 0.608729 402.861 0.360268C402.715 -0.120089 402.131 -0.120089 401.985 0.360268C401.904 0.592165 400.735 4.31908 399.745 7.39999H392.473C391.986 7.39999 391.824 7.96317 392.197 8.24476C392.392 8.39384 395.492 10.6797 398.073 12.5845C397.083 15.682 395.914 19.3758 395.833 19.6077C395.687 20.0881 396.157 20.4193 396.547 20.1378C396.742 19.9887 399.826 17.7028 402.407 15.798C404.988 17.7194 408.072 20.0052 408.267 20.1543C408.656 20.4359 409.127 20.1046 408.981 19.6243C408.9 19.3924 407.731 15.682 406.741 12.5845C409.322 10.6797 412.422 8.37727 412.617 8.2282C413.006 7.96317 412.828 7.39999 412.341 7.39999Z" fill="#E8B21F"/>
<path d="M399.436 12.1539L394.615 8.57609L392.213 8.24481L398.089 12.6012L399.436 12.1539Z" fill="#C68917"/>
<path d="M404.241 8.57607L405.085 7.40002L402.861 0.360291L402.423 2.79521L404.241 8.57607Z" fill="#C68917"/>
<path d="M397.602 17.9181L396.563 20.1543L402.407 15.7979V14.3569L397.602 17.9181Z" fill="#C68917"/>
<path d="M412.795 7.6982C412.682 7.73132 410.896 8.34419 410.198 8.57609L405.377 12.1539L407.211 17.9348C407.796 18.7464 408.818 20.1875 408.818 20.1875C408.964 20.0881 409.046 19.8728 408.964 19.6409C408.883 19.409 407.715 15.6986 406.724 12.6012C409.305 10.6963 412.406 8.39389 412.6 8.24481C412.811 8.09573 412.876 7.8804 412.795 7.6982Z" fill="#C68917"/>
<path fill-rule="evenodd" clip-rule="evenodd" d="M310.242 35.8902H308.618V134.993H310.242V35.8902Z" fill="white"/>
<path d="M22.1244 141.254C22.1244 142 22.2218 142.679 22.4004 143.258C22.5789 143.838 22.8386 144.319 23.1633 144.716C23.4879 145.114 23.8775 145.412 24.3157 145.611C24.754 145.809 25.2247 145.909 25.7279 145.909C26.2311 145.909 26.7018 145.809 27.1401 145.611C27.5784 145.412 27.9517 145.114 28.2763 144.716C28.601 144.319 28.8607 143.838 29.0392 143.258C29.2178 142.679 29.3152 142.016 29.3152 141.254C29.3152 140.509 29.2178 139.846 29.0392 139.267C28.8607 138.687 28.601 138.206 28.2763 137.809C27.9517 137.411 27.5621 137.113 27.1401 136.914C26.7018 136.716 26.2311 136.616 25.7279 136.616C25.2247 136.616 24.754 136.716 24.3157 136.914C23.8775 137.113 23.5041 137.411 23.1633 137.809C22.8386 138.206 22.5789 138.687 22.4004 139.267C22.2056 139.846 22.1244 140.509 22.1244 141.254ZM31.4903 141.254C31.4903 142.215 31.3604 143.076 31.0845 143.871C30.8248 144.65 30.4352 145.329 29.932 145.892C29.4288 146.455 28.8282 146.886 28.114 147.201C27.3998 147.515 26.6044 147.664 25.7117 147.664C24.8189 147.664 24.0236 147.499 23.3094 147.201C22.5951 146.886 21.9946 146.455 21.4914 145.892C20.9882 145.329 20.6148 144.65 20.3389 143.871C20.0792 143.093 19.9331 142.215 19.9331 141.254C19.9331 140.293 20.063 139.432 20.3389 138.637C20.6148 137.859 20.9882 137.179 21.4914 136.616C21.9946 136.053 22.5951 135.622 23.3094 135.308C24.0236 134.993 24.8189 134.844 25.7117 134.844C26.6044 134.844 27.3998 134.993 28.114 135.308C28.8282 135.622 29.4288 136.053 29.932 136.616C30.4352 137.179 30.8248 137.859 31.0845 138.637C31.3604 139.432 31.4903 140.31 31.4903 141.254Z" fill="white"/>
<path d="M41.018 135.755C41.8458 135.805 42.6087 135.97 43.258 136.252C43.9073 136.517 44.4754 136.898 44.9299 137.362C45.3844 137.825 45.7415 138.389 45.985 139.035C46.2284 139.681 46.3583 140.393 46.3583 141.188C46.3583 141.917 46.2447 142.596 45.985 143.225C45.7415 143.855 45.3844 144.401 44.9299 144.865C44.4754 145.329 43.9235 145.71 43.258 145.992C42.5925 146.273 41.8458 146.439 41.018 146.488V147.963H38.8916V146.488C38.0638 146.439 37.3171 146.273 36.6516 146.008C36.0023 145.727 35.4342 145.362 34.9797 144.898C34.5252 144.435 34.1681 143.888 33.9408 143.258C33.6974 142.629 33.5837 141.933 33.5837 141.188C33.5837 140.426 33.6974 139.73 33.9408 139.084C34.1843 138.438 34.5252 137.892 34.9797 137.411C35.4342 136.948 35.9861 136.567 36.6516 136.285C37.3009 136.003 38.0638 135.838 38.8916 135.788V134.446H41.018V135.755ZM38.9078 137.494C38.4371 137.544 38.0151 137.676 37.6255 137.842C37.2359 138.024 36.9113 138.256 36.6353 138.571C36.3594 138.886 36.1484 139.25 35.9861 139.681C35.8238 140.111 35.7426 140.608 35.7426 141.171C35.7426 141.701 35.8238 142.182 35.9861 142.596C36.1484 143.01 36.3594 143.374 36.6353 143.673C36.9113 143.971 37.2359 144.219 37.6255 144.385C38.0151 144.567 38.4371 144.666 38.9078 144.716V137.494ZM41.018 144.716C41.4725 144.666 41.8945 144.567 42.2841 144.385C42.6736 144.203 42.9983 143.971 43.2742 143.673C43.5502 143.374 43.7774 143.01 43.9235 142.596C44.0858 142.182 44.1508 141.701 44.1508 141.171C44.1508 140.608 44.0696 140.111 43.9235 139.681C43.7612 139.25 43.5502 138.869 43.2742 138.571C42.9983 138.273 42.6574 138.024 42.2841 137.842C41.8945 137.66 41.4725 137.544 41.018 137.494V144.716Z" fill="white"/>
<path d="M48.9395 135.092H51.0009V144.285L56.9256 135.092H58.9708V147.449H56.9256V138.256L51.0009 147.449H48.9395V135.092Z" fill="white"/>
<path d="M73.4334 150H71.4693V147.449H62.3145V135.092H64.4408V145.644H69.7162V135.092H71.8426V145.66H73.4334V150Z" fill="white"/>
<path d="M75.8521 135.092H77.9135V144.285L83.8382 135.092H85.8834V147.449H83.8382V138.256L77.9135 147.449H75.8521V135.092Z" fill="white"/>
<path d="M92.3922 135.092H94.6323L99.1772 147.466H96.856L95.8984 144.716H90.9801L90.0386 147.466H87.8635L92.3922 135.092ZM91.5969 142.894H95.2491L93.4149 137.594L91.5969 142.894Z" fill="white"/>
<path d="M108.43 147.449V136.898H104.648L104.55 139.565C104.502 140.79 104.404 141.9 104.226 142.861C104.063 143.838 103.82 144.666 103.512 145.346C103.203 146.025 102.814 146.555 102.343 146.919C101.872 147.283 101.32 147.466 100.671 147.466H100.168V145.66H100.395C100.768 145.66 101.093 145.478 101.353 145.114C101.612 144.749 101.823 144.236 101.986 143.59C102.148 142.944 102.262 142.182 102.343 141.304C102.424 140.443 102.473 139.498 102.489 138.505L102.57 135.109H110.54V147.482L108.43 147.449Z" fill="white"/>
<path d="M113.9 135.092H116.026V139.498H117.779C118.542 139.498 119.24 139.548 119.889 139.664C120.539 139.78 121.09 139.979 121.561 140.277C122.032 140.575 122.389 140.973 122.665 141.503C122.925 142.016 123.071 142.679 123.071 143.49C123.071 144.285 122.941 144.948 122.665 145.445C122.389 145.942 122.032 146.356 121.561 146.671C121.09 146.969 120.539 147.184 119.889 147.3C119.24 147.416 118.542 147.466 117.779 147.466H113.9V135.092ZM117.844 145.644C118.25 145.644 118.656 145.611 119.029 145.561C119.402 145.511 119.727 145.412 120.003 145.246C120.279 145.08 120.49 144.865 120.652 144.584C120.814 144.302 120.896 143.938 120.896 143.474C120.896 142.993 120.814 142.612 120.652 142.331C120.49 142.049 120.279 141.834 120.003 141.668C119.727 141.519 119.402 141.42 119.029 141.37C118.656 141.32 118.266 141.287 117.844 141.287H116.026V145.627H117.844V145.644Z" fill="white"/>
<path d="M135.375 135.092V147.449H133.265V142H127.47V147.449H125.36V135.092H127.47V140.211H133.265V135.092H135.375Z" fill="white"/>
<path d="M138.719 147.449V135.076H140.845V139.482H142.079C142.841 139.482 143.539 139.531 144.189 139.647C144.838 139.763 145.39 139.962 145.861 140.26C146.331 140.558 146.705 140.956 146.964 141.486C147.224 142 147.37 142.662 147.37 143.474C147.37 144.269 147.24 144.931 146.964 145.428C146.705 145.942 146.331 146.339 145.861 146.654C145.39 146.952 144.838 147.168 144.189 147.283C143.539 147.399 142.841 147.449 142.079 147.449H138.719ZM140.845 145.644H142.143C142.565 145.644 142.955 145.61 143.328 145.561C143.702 145.511 144.026 145.395 144.302 145.246C144.578 145.097 144.806 144.882 144.952 144.584C145.114 144.302 145.179 143.921 145.179 143.474C145.179 143.01 145.098 142.629 144.952 142.347C144.789 142.066 144.578 141.834 144.302 141.685C144.026 141.519 143.702 141.42 143.328 141.37C142.955 141.32 142.565 141.287 142.143 141.287H140.845V145.644ZM149.221 147.449V135.076H151.347V147.449H149.221Z" fill="white"/>
<path d="M162.904 132.343C162.856 133.005 162.563 133.519 162.028 133.883C161.492 134.248 160.762 134.43 159.82 134.43C158.879 134.43 158.148 134.248 157.629 133.883C157.109 133.519 156.801 133.005 156.736 132.343H158.229C158.278 132.641 158.424 132.873 158.7 133.038C158.96 133.204 159.349 133.287 159.836 133.287C160.307 133.287 160.697 133.204 160.973 133.038C161.249 132.873 161.395 132.641 161.427 132.343H162.904ZM154.691 135.092H156.752V144.285L162.677 135.092H164.738V147.466H162.677V138.273L156.752 147.466H154.691V135.092Z" fill="white"/>
<path d="M180.013 147.449V136.898H174.526V147.449H172.4V135.092H182.139V147.449H180.013Z" fill="white"/>
<path d="M188.632 135.092H190.872L195.416 147.466H193.095L192.138 144.716H187.219L186.278 147.466H184.103L188.632 135.092ZM187.852 142.894H191.505L189.67 137.594L187.852 142.894Z" fill="white"/>
<path d="M201.39 135.092C202.056 135.092 202.705 135.125 203.322 135.208C203.938 135.291 204.49 135.457 204.961 135.738C205.432 136.003 205.821 136.401 206.114 136.914C206.406 137.428 206.552 138.107 206.552 138.985C206.552 139.763 206.422 140.409 206.146 140.89C205.886 141.387 205.513 141.768 205.058 142.049C204.604 142.331 204.068 142.53 203.435 142.629C202.818 142.728 202.137 142.778 201.422 142.778H199.523V147.449H197.397V135.076L201.39 135.092ZM199.523 136.832V141.006H201.487C201.893 141.006 202.267 140.989 202.607 140.939C202.948 140.89 203.257 140.807 203.516 140.674C203.776 140.542 203.971 140.343 204.117 140.062C204.263 139.796 204.328 139.432 204.328 139.001C204.328 138.504 204.247 138.107 204.085 137.825C203.922 137.544 203.695 137.312 203.419 137.179C203.143 137.047 202.835 136.947 202.478 136.914C202.12 136.881 201.763 136.848 201.39 136.848H199.523V136.832Z" fill="white"/>
<path d="M211.227 136.898H207.428V135.092H217.168V136.898H213.353V147.449H211.227V136.898Z" fill="white"/>
<path d="M229.293 135.092V147.449H227.166V142H221.388V147.449H219.261V135.092H221.388V140.211H227.166V135.092H229.293Z" fill="white"/>
<path d="M232.637 135.092H241.207V136.898H234.747V140.211H240.85V142H234.747V145.627H241.207V147.449H232.637V135.092Z" fill="white"/>
<path d="M247.976 135.092C248.641 135.092 249.291 135.125 249.907 135.208C250.524 135.291 251.076 135.457 251.547 135.738C252.017 136.003 252.407 136.401 252.699 136.914C252.991 137.428 253.137 138.107 253.137 138.985C253.137 139.763 253.008 140.409 252.732 140.89C252.456 141.387 252.099 141.768 251.644 142.049C251.19 142.331 250.654 142.53 250.021 142.629C249.388 142.728 248.722 142.778 248.008 142.778H246.109V147.449H243.983V135.076L247.976 135.092ZM246.109 136.832V141.006H248.073C248.479 141.006 248.852 140.989 249.193 140.939C249.534 140.89 249.842 140.807 250.102 140.674C250.362 140.542 250.557 140.343 250.703 140.062C250.849 139.796 250.914 139.432 250.914 139.001C250.914 138.504 250.833 138.107 250.67 137.825C250.508 137.544 250.281 137.312 250.005 137.179C249.729 137.047 249.42 136.947 249.063 136.914C248.706 136.881 248.349 136.848 247.976 136.848H246.109V136.832Z" fill="white"/>
</svg>
