<svg width="41" height="36" viewBox="0 0 41 36" fill="none" xmlns="http://www.w3.org/2000/svg">
<path fill-rule="evenodd" clip-rule="evenodd" d="M39.2537 17.8426C39.2537 26.5125 31.0929 33.9389 20.5 33.9389C9.90706 33.9389 1.7463 26.5125 1.7463 17.8426C1.7463 9.17265 9.90706 1.7463 20.5 1.7463C31.0929 1.7463 39.2537 9.17265 39.2537 17.8426ZM41 17.8426C41 27.6968 31.8218 35.6852 20.5 35.6852C9.17816 35.6852 0 27.6968 0 17.8426C0 7.9884 9.17816 0 20.5 0C31.8218 0 41 7.9884 41 17.8426ZM18.9812 10.6296H22.0182V16.3239H27.3331V19.3609H22.0182V25.0556H18.9812V19.3609H12.9072V16.3239H18.9812V10.6296Z" fill="white"/>
</svg>
