<svg width="572" height="256" viewBox="0 0 572 256" fill="none" xmlns="http://www.w3.org/2000/svg">
<path d="M27.0278 80.0094H64.0791V33.6505L27.0278 80.0094ZM110.796 100.951H88.601V132.096H64.0791V100.951H0V81.6203L64.4371 2.3269H88.601V80.0094H110.796V100.951Z" fill="white"/>
<path d="M167.857 115.808C174.658 115.808 180.267 113.481 184.682 108.827C189.097 104.173 191.305 97.7296 191.305 89.496C191.305 85.0808 190.589 81.2027 189.157 77.8615C187.844 74.5203 186.054 71.7758 183.787 69.6279C181.52 67.3606 178.954 65.69 176.09 64.6161C173.226 63.5421 170.303 63.0052 167.32 63.0052C161.592 63.0052 156.759 64.1984 152.821 66.585C149.003 68.9715 146.437 71.7161 145.125 74.8186L122.572 73.7447L131.163 2.3269H211.173V23.09H151.389L147.81 50.8337C150.554 48.8051 154.015 47.1345 158.191 45.8219C162.368 44.39 167.499 43.674 173.584 43.674C179.074 43.674 184.384 44.6883 189.515 46.7169C194.765 48.6261 199.359 51.49 203.297 55.3085C207.235 59.127 210.397 63.9001 212.784 69.6279C215.17 75.2363 216.364 81.7993 216.364 89.317C216.364 96.4766 215.051 102.861 212.426 108.469C209.92 114.078 206.4 118.791 201.865 122.609C197.45 126.428 192.259 129.351 186.293 131.38C180.446 133.409 174.181 134.423 167.499 134.423C159.862 134.423 153.12 133.23 147.273 130.843C141.545 128.457 136.652 125.294 132.595 121.357C128.657 117.299 125.555 112.705 123.288 107.574C121.14 102.324 119.887 96.8943 119.529 91.2859H142.798C143.156 94.6271 143.872 97.7892 144.946 100.772C146.139 103.756 147.75 106.381 149.779 108.648C151.926 110.796 154.492 112.526 157.475 113.839C160.458 115.151 163.919 115.808 167.857 115.808Z" fill="white"/>
<path d="M282.957 134.423C274.246 134.423 266.609 132.752 260.046 129.411C253.602 126.07 248.173 121.416 243.758 115.45C239.462 109.483 236.18 102.383 233.913 94.1497C231.765 85.9161 230.691 76.8472 230.691 66.943C230.691 57.1581 231.765 48.1488 233.913 39.9152C236.18 31.6816 239.462 24.6412 243.758 18.7942C248.173 12.8278 253.602 8.23363 260.046 5.01177C266.609 1.67059 274.246 0 282.957 0C291.549 0 299.066 1.67059 305.51 5.01177C312.073 8.23363 317.502 12.8278 321.798 18.7942C326.213 24.6412 329.495 31.6816 331.643 39.9152C333.91 48.1488 335.044 57.1581 335.044 66.943C335.044 76.8472 333.91 85.9161 331.643 94.1497C329.495 102.383 326.213 109.483 321.798 115.45C317.502 121.416 312.073 126.07 305.51 129.411C299.066 132.752 291.549 134.423 282.957 134.423ZM282.957 115.808C291.787 115.808 298.47 111.572 303.004 103.099C307.538 94.6271 309.806 82.5749 309.806 66.943C309.806 51.311 307.538 39.3782 303.004 31.1446C298.47 22.7916 291.787 18.6152 282.957 18.6152C274.127 18.6152 267.385 22.7916 262.731 31.1446C258.196 39.3782 255.929 51.311 255.929 66.943C255.929 82.5749 258.196 94.6271 262.731 103.099C267.385 111.572 274.127 115.808 282.957 115.808Z" fill="white"/>
<path d="M401.644 134.423C392.933 134.423 385.296 132.752 378.733 129.411C372.289 126.07 366.86 121.416 362.445 115.45C358.149 109.483 354.867 102.383 352.6 94.1497C350.452 85.9161 349.378 76.8472 349.378 66.943C349.378 57.1581 350.452 48.1488 352.6 39.9152C354.867 31.6816 358.149 24.6412 362.445 18.7942C366.86 12.8278 372.289 8.23363 378.733 5.01177C385.296 1.67059 392.933 0 401.644 0C410.236 0 417.753 1.67059 424.197 5.01177C430.76 8.23363 436.189 12.8278 440.485 18.7942C444.9 24.6412 448.182 31.6816 450.33 39.9152C452.597 48.1488 453.731 57.1581 453.731 66.943C453.731 76.8472 452.597 85.9161 450.33 94.1497C448.182 102.383 444.9 109.483 440.485 115.45C436.189 121.416 430.76 126.07 424.197 129.411C417.753 132.752 410.236 134.423 401.644 134.423ZM401.644 115.808C410.474 115.808 417.157 111.572 421.691 103.099C426.226 94.6271 428.493 82.5749 428.493 66.943C428.493 51.311 426.226 39.3782 421.691 31.1446C417.157 22.7916 410.474 18.6152 401.644 18.6152C392.814 18.6152 386.072 22.7916 381.418 31.1446C376.883 39.3782 374.616 51.311 374.616 66.943C374.616 82.5749 376.883 94.6271 381.418 103.099C386.072 111.572 392.814 115.808 401.644 115.808Z" fill="white"/>
<path d="M519.078 134.423C512.634 134.423 506.489 133.647 500.642 132.096C494.914 130.545 489.902 128.278 485.607 125.294C481.311 122.192 477.91 118.433 475.404 114.018C472.898 109.483 471.645 104.233 471.645 98.2666C471.645 95.522 471.765 93.0758 472.003 90.9279C472.361 88.78 472.958 86.8707 473.793 85.2001H465.917V71.5968H571.881V85.2001H501.716C498.733 87.9447 497.241 91.5245 497.241 95.9397C497.241 99.4002 497.838 102.264 499.031 104.531C500.344 106.799 502.014 108.588 504.043 109.901C506.071 111.214 508.398 112.168 511.023 112.765C513.649 113.242 516.334 113.481 519.078 113.481C525.76 113.481 531.19 111.93 535.366 108.827C539.662 105.605 542.466 100.593 543.779 93.7918H568.301C567.824 99.4002 566.272 104.71 563.647 109.722C561.022 114.614 557.561 118.91 553.266 122.609C548.97 126.309 543.898 129.232 538.051 131.38C532.204 133.409 525.88 134.423 519.078 134.423ZM465.917 62.1102V48.5068H533.934C535.844 47.1942 537.335 45.5833 538.409 43.674C539.602 41.6454 540.199 39.2589 540.199 36.5143C540.199 30.6673 538.23 26.6101 534.292 24.3429C530.474 21.9563 525.522 20.7631 519.436 20.7631C512.992 20.7631 507.444 22.374 502.79 25.5958C498.255 28.8177 495.57 32.9345 494.735 37.9463H469.855C470.094 33.0538 471.407 28.3404 473.793 23.8059C476.299 19.2715 479.64 15.274 483.817 11.8135C488.113 8.23363 493.184 5.36976 499.031 3.22186C504.878 1.07396 511.322 0 518.362 0C524.567 0 530.534 0.715971 536.261 2.14791C541.989 3.57984 547.06 5.78741 551.476 8.77061C555.891 11.7538 559.351 15.5126 561.857 20.0471C564.482 24.4622 565.795 29.7127 565.795 35.7984C565.795 40.9295 564.661 45.1656 562.394 48.5068H571.881V62.1102H465.917Z" fill="white"/>
<path d="M96.9546 254.604V176.742H154.518V189.2H112.312V206.491H131.965C136.404 206.491 140.414 206.885 143.994 207.672C147.645 208.46 150.76 209.784 153.337 211.646C155.915 213.436 157.919 215.834 159.351 218.841C160.783 221.777 161.499 225.464 161.499 229.903C161.499 234.414 160.783 238.244 159.351 241.394C157.919 244.473 155.879 247.015 153.23 249.019C150.652 250.952 147.466 252.384 143.671 253.315C139.948 254.174 135.796 254.604 131.214 254.604H96.9546ZM112.312 242.146H131.858C136.369 242.146 139.805 241.144 142.168 239.139C144.602 237.134 145.819 234.199 145.819 230.333C145.819 226.251 144.602 223.352 142.168 221.633C139.734 219.844 136.225 218.949 131.643 218.949H112.312V242.146Z" fill="white"/>
<path d="M184.482 215.619C184.482 220.202 185.055 224.247 186.201 227.755C187.418 231.263 189.029 234.199 191.034 236.561C193.038 238.924 195.401 240.714 198.122 241.931C200.842 243.148 203.706 243.757 206.713 243.757C209.72 243.757 212.584 243.148 215.305 241.931C218.026 240.714 220.388 238.924 222.393 236.561C224.398 234.199 225.973 231.263 227.118 227.755C228.336 224.247 228.944 220.202 228.944 215.619C228.944 211.037 228.336 207.028 227.118 203.591C225.973 200.083 224.398 197.147 222.393 194.785C220.388 192.422 218.026 190.632 215.305 189.415C212.584 188.198 209.72 187.589 206.713 187.589C203.706 187.589 200.842 188.198 198.122 189.415C195.401 190.632 193.038 192.422 191.034 194.785C189.029 197.147 187.418 200.083 186.201 203.591C185.055 207.028 184.482 211.037 184.482 215.619ZM244.839 215.619C244.839 221.633 243.944 227.146 242.154 232.158C240.364 237.098 237.786 241.358 234.421 244.938C231.128 248.446 227.118 251.167 222.393 253.1C217.739 255.033 212.513 256 206.713 256C200.914 256 195.652 255.033 190.926 253.1C186.272 251.167 182.263 248.446 178.898 244.938C175.604 241.358 173.063 237.098 171.273 232.158C169.483 227.146 168.588 221.633 168.588 215.619C168.588 209.605 169.483 204.128 171.273 199.188C173.063 194.176 175.604 189.916 178.898 186.408C182.263 182.9 186.272 180.179 190.926 178.246C195.652 176.313 200.914 175.346 206.713 175.346C212.513 175.346 217.739 176.313 222.393 178.246C227.118 180.179 231.128 182.9 234.421 186.408C237.786 189.916 240.364 194.176 242.154 199.188C243.944 204.128 244.839 209.605 244.839 215.619Z" fill="white"/>
<path d="M322.617 176.742V254.604H307.26V220.989H272.356V254.604H256.999V176.742H272.356V208.531H307.26V176.742H322.617Z" fill="white"/>
<path d="M342.125 256V243.542H350.072C352.149 243.542 353.831 243.256 355.12 242.683C356.409 242.11 357.59 241 358.664 239.354L359.845 237.528L331.386 176.742H348.139L367.685 221.633L385.191 176.742H402.052L374.344 239.783C373.27 242.289 372.053 244.544 370.692 246.549C369.404 248.482 367.828 250.165 365.967 251.597C364.177 253.029 362.065 254.103 359.631 254.819C357.268 255.606 354.476 256 351.254 256H342.125Z" fill="white"/>
<path d="M475.115 229.044C474.614 232.982 473.432 236.597 471.571 239.891C469.781 243.184 467.418 246.048 464.483 248.482C461.547 250.845 458.111 252.706 454.173 254.067C450.307 255.356 446.047 256 441.393 256C435.593 256 430.438 255.069 425.928 253.208C421.417 251.275 417.587 248.554 414.437 245.046C411.358 241.466 408.995 237.17 407.348 232.158C405.773 227.146 404.986 221.526 404.986 215.297C404.986 209.14 405.845 203.591 407.563 198.651C409.282 193.711 411.716 189.522 414.866 186.086C418.088 182.649 421.954 180 426.465 178.138C431.047 176.277 436.166 175.346 441.822 175.346C446.405 175.346 450.593 175.991 454.388 177.279C458.182 178.496 461.511 180.286 464.375 182.649C467.239 184.94 469.566 187.732 471.356 191.026C473.217 194.248 474.47 197.899 475.115 201.98H460.509C459.793 199.26 458.791 197.004 457.502 195.214C456.285 193.353 454.853 191.849 453.206 190.704C451.631 189.558 449.841 188.771 447.836 188.341C445.903 187.84 443.863 187.589 441.715 187.589C438.779 187.589 436.023 188.198 433.445 189.415C430.94 190.561 428.756 192.315 426.894 194.677C425.033 197.04 423.565 199.94 422.491 203.376C421.417 206.813 420.88 210.787 420.88 215.297C420.88 219.951 421.417 224.068 422.491 227.648C423.565 231.156 424.997 234.127 426.787 236.561C428.648 238.924 430.796 240.714 433.231 241.931C435.737 243.148 438.386 243.757 441.178 243.757C443.469 243.757 445.653 243.506 447.729 243.005C449.805 242.432 451.667 241.573 453.314 240.428C455.032 239.211 456.5 237.671 457.717 235.81C458.934 233.948 459.865 231.693 460.509 229.044H475.115Z" fill="white"/>
</svg>
