<?xml version="1.0" encoding="UTF-8" standalone="no"?>
<!DOCTYPE svg PUBLIC "-//W3C//DTD SVG 1.1//EN" "http://www.w3.org/Graphics/SVG/1.1/DTD/svg11.dtd">
<svg width="100%" height="100%" viewBox="0 0 758 382" version="1.1" xmlns="http://www.w3.org/2000/svg" xmlns:xlink="http://www.w3.org/1999/xlink" xml:space="preserve" xmlns:serif="http://www.serif.com/" style="fill-rule:evenodd;clip-rule:evenodd;stroke-linejoin:round;stroke-miterlimit:2;">
    <g transform="matrix(1,0,0,1,0,-8568)">
        <g id="Artboard2" transform="matrix(1,0,0,1,1322.73,-0.41513)">
            <rect x="-1322.73" y="8568.42" width="757.715" height="381.124" style="fill:none;"/>
            <g transform="matrix(1.27141,0,0,1.27141,-1184.84,8677.22)">
                <g id="Layer-1" serif:id="Layer 1">
                    <g transform="matrix(1,0,0,1,0,18.057)">
                        <rect x="0.001" y="34.019" width="239.029" height="42.52" style="fill:rgb(255,38,126);"/>
                    </g>
                    <g transform="matrix(1,0,0,1,77.3374,74.1254)">
                        <path d="M0,-1.578L-14.253,-1.578L-14.253,-5.708L2.977,-5.708L2.977,-11.419L-22.513,-11.419L-22.513,9.841L-14.253,9.841L-14.253,4.13L0,4.13L0,-1.578Z" style="fill:rgb(0,0,85);fill-rule:nonzero;"/>
                    </g>
                    <g transform="matrix(1,0,0,1,122.608,69.8129)">
                        <path d="M0,7.047L-7.562,-7.106L-17.038,-7.106L-4.769,14.153L4.646,14.153L16.915,-7.106L7.562,-7.106L0,7.047Z" style="fill:rgb(0,0,85);fill-rule:nonzero;"/>
                    </g>
                    <g transform="matrix(1,0,0,1,159.683,67.8108)">
                        <path d="M0,11.052L-9.889,11.052L-9.889,7.832L0,7.832C1.063,7.832 1.822,8.501 1.822,9.442C1.822,10.383 1.063,11.052 0,11.052M-9.889,-0.001L-0.668,-0.001C0.396,-0.001 1.154,0.667 1.154,1.608C1.154,2.551 0.396,3.218 -0.668,3.218L-9.889,3.218L-9.889,-0.001ZM6.311,5.359C8.465,4.311 9.476,2.656 9.476,0.788C9.476,-2.705 6.529,-5.104 0.729,-5.104L-17.937,-5.104L-17.937,16.156L1.154,16.156C7.38,16.156 10.144,13.696 10.144,10.142C10.144,8.154 8.94,6.35 6.311,5.359" style="fill:rgb(0,0,85);fill-rule:nonzero;"/>
                    </g>
                    <g transform="matrix(1,0,0,1,182.005,71.0291)">
                        <path d="M0,4.614L14.222,4.614L14.222,-0L0,-0L0,-2.612L15.723,-2.612L15.723,-8.323L-8.261,-8.323L-8.261,12.937L16.098,12.937L16.098,7.227L0,7.227L0,4.614Z" style="fill:rgb(0,0,85);fill-rule:nonzero;"/>
                    </g>
                    <g transform="matrix(1,0,0,1,201.51,83.9666)">
                        <path d="M0,-21.26L0,-15.55L9.268,-15.55L9.268,0L17.62,0L17.62,-15.55L26.889,-15.55L26.889,-21.26L0,-21.26Z" style="fill:rgb(0,0,85);fill-rule:nonzero;"/>
                    </g>
                    <g transform="matrix(1,0,0,1,91.019,71.3656)">
                        <path d="M0,3.943L3.627,-2.9L7.254,3.943L0,3.943ZM-1.096,-8.658L-13.364,12.601L-4.588,12.601L-2.929,9.47L10.184,9.47L11.843,12.601L20.983,12.601L8.714,-8.658L-1.096,-8.658Z" style="fill:rgb(0,0,85);fill-rule:nonzero;"/>
                    </g>
                    <g transform="matrix(0.493128,0.869957,0.869957,-0.493128,20.5558,67.0402)">
                        <path d="M-1.383,-10.552L13.475,-10.552L18.111,-2.374L3.252,-2.376L-1.383,-10.552Z" style="fill:rgb(0,0,85);fill-rule:nonzero;"/>
                    </g>
                    <g transform="matrix(-0.493128,0.869957,0.869957,0.493128,41.9187,79.789)">
                        <path d="M-4.075,-10.552L10.783,-10.552L6.148,-2.375L-8.71,-2.374L-4.075,-10.552Z" style="fill:rgb(0,0,85);fill-rule:nonzero;"/>
                    </g>
                    <g transform="matrix(1,0,0,1,27.4214,71.0406)">
                        <path d="M0,-12.898L-7.328,0L7.327,0L0,-12.898Z" style="fill:rgb(0,0,85);fill-rule:nonzero;"/>
                    </g>
                    <g transform="matrix(1,0,0,1,34.6704,121.114)">
                        <path d="M0,-0.015C0,0.631 0.08,1.204 0.242,1.703C0.403,2.201 0.628,2.62 0.917,2.958C1.206,3.296 1.541,3.55 1.923,3.721C2.305,3.892 2.716,3.978 3.156,3.978C3.597,3.978 4.007,3.892 4.389,3.721C4.771,3.55 5.105,3.296 5.395,2.958C5.683,2.62 5.908,2.201 6.069,1.703C6.231,1.204 6.312,0.631 6.312,-0.015C6.312,-0.661 6.231,-1.231 6.069,-1.725C5.908,-2.22 5.683,-2.636 5.395,-2.973C5.105,-3.311 4.771,-3.565 4.389,-3.737C4.007,-3.908 3.597,-3.993 3.156,-3.993C2.716,-3.993 2.305,-3.908 1.923,-3.737C1.541,-3.565 1.206,-3.311 0.917,-2.973C0.628,-2.636 0.403,-2.22 0.242,-1.725C0.08,-1.231 0,-0.661 0,-0.015M8.235,-0.015C8.235,0.807 8.117,1.556 7.883,2.231C7.647,2.906 7.311,3.486 6.87,3.971C6.43,4.455 5.896,4.832 5.27,5.101C4.644,5.37 3.938,5.505 3.156,5.505C2.373,5.505 1.668,5.37 1.042,5.101C0.415,4.832 -0.118,4.455 -0.559,3.971C-0.999,3.486 -1.336,2.906 -1.571,2.231C-1.806,1.556 -1.924,0.807 -1.924,-0.015C-1.924,-0.837 -1.806,-1.586 -1.571,-2.261C-1.336,-2.936 -0.999,-3.516 -0.559,-4C-0.118,-4.485 0.415,-4.859 1.042,-5.124C1.668,-5.388 2.373,-5.52 3.156,-5.52C3.938,-5.52 4.644,-5.388 5.27,-5.124C5.896,-4.859 6.43,-4.485 6.87,-4C7.311,-3.516 7.647,-2.936 7.883,-2.261C8.117,-1.586 8.235,-0.837 8.235,-0.015" style="fill:white;fill-rule:nonzero;"/>
                    </g>
                    <g transform="matrix(1,0,0,1,51.5757,117.956)">
                        <path d="M0,6.123C0.4,6.083 0.771,5.988 1.108,5.836C1.445,5.685 1.736,5.479 1.981,5.22C2.226,4.961 2.417,4.653 2.554,4.295C2.69,3.937 2.76,3.529 2.76,3.069C2.76,2.59 2.69,2.162 2.554,1.785C2.417,1.408 2.226,1.087 1.981,0.823C1.736,0.559 1.445,0.351 1.108,0.199C0.771,0.048 0.4,-0.052 0,-0.102L0,6.123ZM-1.864,-0.102C-2.275,-0.052 -2.65,0.048 -2.987,0.199C-3.325,0.351 -3.614,0.559 -3.854,0.823C-4.094,1.087 -4.282,1.408 -4.419,1.785C-4.557,2.162 -4.625,2.59 -4.625,3.069C-4.625,3.529 -4.557,3.937 -4.419,4.295C-4.282,4.653 -4.094,4.961 -3.854,5.22C-3.614,5.479 -3.325,5.685 -2.987,5.836C-2.65,5.988 -2.275,6.083 -1.864,6.123L-1.864,-0.102ZM0,-1.599C0.733,-1.55 1.389,-1.408 1.967,-1.173C2.544,-0.938 3.033,-0.621 3.435,-0.219C3.836,0.183 4.145,0.662 4.359,1.22C4.574,1.778 4.683,2.394 4.683,3.069C4.683,3.695 4.574,4.278 4.359,4.816C4.145,5.354 3.836,5.824 3.435,6.225C3.033,6.627 2.544,6.95 1.967,7.194C1.389,7.439 0.733,7.581 0,7.62L0,8.882L-1.864,8.882L-1.864,7.62C-2.599,7.581 -3.255,7.441 -3.832,7.201C-4.409,6.962 -4.898,6.644 -5.3,6.248C-5.701,5.851 -6.007,5.381 -6.218,4.838C-6.428,4.295 -6.533,3.7 -6.533,3.054C-6.533,2.399 -6.428,1.795 -6.218,1.241C-6.007,0.688 -5.701,0.209 -5.3,-0.197C-4.898,-0.603 -4.409,-0.926 -3.832,-1.166C-3.255,-1.405 -2.599,-1.55 -1.864,-1.599L-1.864,-2.759L0,-2.759L0,-1.599Z" style="fill:white;fill-rule:nonzero;"/>
                    </g>
                    <g transform="matrix(-1,0,0,1,119.28,113.596)">
                        <rect x="58.708" y="2.188" width="1.864" height="10.643" style="fill:white;"/>
                    </g>
                    <g transform="matrix(1,0,0,1,73.477,115.785)">
                        <path d="M0,12.83L-1.732,12.83L-1.732,10.642L-9.762,10.642L-9.762,0L-7.897,0L-7.897,9.087L-3.259,9.087L-3.259,0L-1.395,0L-1.395,9.101L0,9.101L0,12.83Z" style="fill:white;fill-rule:nonzero;"/>
                    </g>
                    <g transform="matrix(-1,0,0,1,153.532,113.596)">
                        <rect x="75.834" y="2.188" width="1.864" height="10.643" style="fill:white;"/>
                    </g>
                    <g transform="matrix(1,0,0,1,88.0649,126.427)">
                        <path d="M0,-13.006C-0.05,-12.439 -0.307,-11.998 -0.771,-11.685C-1.236,-11.372 -1.885,-11.215 -2.716,-11.215C-3.538,-11.215 -4.18,-11.372 -4.64,-11.685C-5.1,-11.998 -5.358,-12.439 -5.417,-13.006L-4.11,-13.006C-4.072,-12.752 -3.935,-12.551 -3.7,-12.404C-3.465,-12.258 -3.132,-12.184 -2.701,-12.184C-2.281,-12.184 -1.95,-12.258 -1.711,-12.404C-1.471,-12.551 -1.336,-12.752 -1.307,-13.006L0,-13.006ZM-7.223,-10.643L-5.417,-10.643L-5.417,-2.73L-0.221,-10.643L1.585,-10.643L1.585,0L-0.221,0L-0.221,-7.913L-5.417,0L-7.223,0L-7.223,-10.643Z" style="fill:white;fill-rule:nonzero;"/>
                    </g>
                    <g transform="matrix(1,0,0,1,101.602,126.428)">
                        <path d="M0,-10.643L0,0L-1.864,0L-1.864,-4.698L-6.943,-4.698L-6.943,0L-8.808,0L-8.808,-10.643L-6.943,-10.643L-6.943,-6.239L-1.864,-6.239L-1.864,-10.643L0,-10.643Z" style="fill:white;fill-rule:nonzero;"/>
                    </g>
                    <g transform="matrix(1,0,0,1,104.747,126.428)">
                        <path d="M0,-10.643L1.806,-10.643L1.806,-2.73L7.002,-10.643L8.808,-10.643L8.808,0L7.002,0L7.002,-7.913L1.806,0L0,0L0,-10.643Z" style="fill:white;fill-rule:nonzero;"/>
                    </g>
                    <g transform="matrix(1,0,0,1,123.922,126.427)">
                        <path d="M0,-13.006C-0.05,-12.439 -0.307,-11.998 -0.771,-11.685C-1.236,-11.372 -1.885,-11.215 -2.716,-11.215C-3.538,-11.215 -4.18,-11.372 -4.64,-11.685C-5.1,-11.998 -5.358,-12.439 -5.417,-13.006L-4.11,-13.006C-4.072,-12.752 -3.935,-12.551 -3.7,-12.404C-3.465,-12.258 -3.132,-12.184 -2.701,-12.184C-2.281,-12.184 -1.95,-12.258 -1.711,-12.404C-1.471,-12.551 -1.336,-12.752 -1.307,-13.006L0,-13.006ZM-7.223,-10.643L-5.417,-10.643L-5.417,-2.73L-0.221,-10.643L1.585,-10.643L1.585,0L-0.221,0L-0.221,-7.913L-5.417,0L-7.223,0L-7.223,-10.643Z" style="fill:white;fill-rule:nonzero;"/>
                    </g>
                    <g transform="matrix(1,0,0,1,139.819,115.784)">
                        <path d="M0,10.643L0,1.556L-4.814,1.556L-4.814,10.643L-6.679,10.643L-6.679,0L1.864,0L1.864,10.643L0,10.643Z" style="fill:white;fill-rule:nonzero;"/>
                    </g>
                    <g transform="matrix(1,0,0,1,147.131,119.703)">
                        <path d="M0,2.805L3.215,2.805L1.601,-1.76L0,2.805ZM0.69,-3.919L2.657,-3.919L6.65,6.724L4.609,6.724L3.773,4.361L-0.543,4.361L-1.365,6.724L-3.273,6.724L0.69,-3.919Z" style="fill:white;fill-rule:nonzero;"/>
                    </g>
                    <g transform="matrix(1,0,0,1,157.798,124.931)">
                        <path d="M0,-7.649L0,-4.052L1.732,-4.052C2.084,-4.052 2.412,-4.071 2.716,-4.111C3.019,-4.15 3.283,-4.229 3.509,-4.346C3.733,-4.463 3.909,-4.637 4.037,-4.867C4.164,-5.097 4.228,-5.403 4.228,-5.784C4.228,-6.215 4.154,-6.555 4.008,-6.804C3.86,-7.054 3.667,-7.24 3.428,-7.363C3.188,-7.484 2.911,-7.563 2.599,-7.597C2.285,-7.632 1.967,-7.649 1.644,-7.649L0,-7.649ZM1.644,-9.146C2.231,-9.146 2.796,-9.112 3.34,-9.043C3.883,-8.975 4.362,-8.823 4.778,-8.588C5.194,-8.354 5.529,-8.016 5.784,-7.575C6.038,-7.135 6.165,-6.543 6.165,-5.799C6.165,-5.124 6.048,-4.575 5.813,-4.155C5.578,-3.734 5.26,-3.401 4.858,-3.157C4.457,-2.912 3.982,-2.746 3.435,-2.658C2.887,-2.57 2.3,-2.525 1.673,-2.525L0,-2.525L0,1.497L-1.864,1.497L-1.864,-9.146L1.644,-9.146Z" style="fill:white;fill-rule:nonzero;"/>
                    </g>
                    <g transform="matrix(1,0,0,1,168.936,124.871)">
                        <path d="M0,-7.531L-3.348,-7.531L-3.348,-9.087L5.211,-9.087L5.211,-7.531L1.864,-7.531L1.864,1.556L0,1.556L0,-7.531Z" style="fill:white;fill-rule:nonzero;"/>
                    </g>
                    <g transform="matrix(1,0,0,1,185.163,126.428)">
                        <path d="M0,-10.643L0,0L-1.864,0L-1.864,-4.698L-6.943,-4.698L-6.943,0L-8.808,0L-8.808,-10.643L-6.943,-10.643L-6.943,-6.239L-1.864,-6.239L-1.864,-10.643L0,-10.643Z" style="fill:white;fill-rule:nonzero;"/>
                    </g>
                    <g transform="matrix(1,0,0,1,188.313,126.428)">
                        <path d="M0,-10.643L7.53,-10.643L7.53,-9.087L1.864,-9.087L1.864,-6.239L7.223,-6.239L7.223,-4.698L1.864,-4.698L1.864,-1.571L7.53,-1.571L7.53,0L0,0L0,-10.643Z" style="fill:white;fill-rule:nonzero;"/>
                    </g>
                    <g transform="matrix(1,0,0,1,200.396,124.931)">
                        <path d="M0,-7.649L0,-4.052L1.732,-4.052C2.084,-4.052 2.412,-4.071 2.716,-4.111C3.019,-4.15 3.283,-4.229 3.509,-4.346C3.733,-4.463 3.909,-4.637 4.037,-4.867C4.164,-5.097 4.228,-5.403 4.228,-5.784C4.228,-6.215 4.154,-6.555 4.008,-6.804C3.86,-7.054 3.667,-7.24 3.428,-7.363C3.188,-7.484 2.911,-7.563 2.599,-7.597C2.285,-7.632 1.967,-7.649 1.644,-7.649L0,-7.649ZM1.644,-9.146C2.231,-9.146 2.796,-9.112 3.34,-9.043C3.883,-8.975 4.362,-8.823 4.778,-8.588C5.194,-8.354 5.529,-8.016 5.784,-7.575C6.038,-7.135 6.165,-6.543 6.165,-5.799C6.165,-5.124 6.048,-4.575 5.813,-4.155C5.578,-3.734 5.26,-3.401 4.858,-3.157C4.457,-2.912 3.982,-2.746 3.435,-2.658C2.887,-2.57 2.3,-2.525 1.673,-2.525L0,-2.525L0,1.497L-1.864,1.497L-1.864,-9.146L1.644,-9.146Z" style="fill:white;fill-rule:nonzero;"/>
                    </g>
                    <g transform="matrix(1,0,0,1,340.854,19.8581)">
                        <path d="M0,106.951C-1.13,106.951 -2.19,106.397 -2.838,105.468C-8.595,97.212 -34.456,60.126 -37.389,55.923C-38.487,54.348 -38.487,52.613 -37.39,51.038L-28.154,37.795C-18.334,23.711 -3.218,2.036 -2.814,1.457C-2.178,0.545 -1.129,0 -0.009,0C1.117,0 2.175,0.549 2.819,1.468C3.286,2.135 36.566,49.853 37.391,51.04C38.486,52.616 38.485,54.35 37.388,55.922L36.08,57.797C12.084,92.202 4.758,102.711 2.838,105.468C2.191,106.397 1.131,106.951 0,106.951" style="fill:rgb(0,105,178);"/>
                    </g>
                    <g transform="matrix(1,0,0,1,376.74,71.9395)">
                        <path d="M0,2.792C-0.622,3.682 -29.836,45.567 -34.552,52.34C-35.198,53.268 -36.569,53.272 -37.221,52.339C-41.744,45.853 -68.704,7.191 -71.772,2.793C-72.421,1.863 -72.422,0.936 -71.772,0.004C-69.777,-2.855 -37.791,-48.725 -37.197,-49.576C-36.566,-50.48 -35.206,-50.473 -34.567,-49.562C-33.929,-48.65 -0.667,-0.955 0.001,0.005C0.649,0.938 0.647,1.864 0,2.792" style="fill:white;"/>
                    </g>
                    <g transform="matrix(1,0,0,1,341.199,24.603)">
                        <path d="M0,97.461C-0.189,97.734 -0.5,97.734 -0.69,97.461L-34.328,49.226C-34.519,48.953 -34.519,48.507 -34.328,48.235L-0.69,-0C-0.5,-0.273 -0.189,-0.273 0,-0L33.638,48.235C33.828,48.507 33.828,48.953 33.638,49.226L0,97.461" style="fill:rgb(0,66,136);"/>
                    </g>
                    <g transform="matrix(1,0,0,1,340.983,26.1122)">
                        <path d="M0,94.443C-0.071,94.545 -0.187,94.545 -0.259,94.443L-33.061,47.407C-33.132,47.305 -33.132,47.137 -33.061,47.035L-0.259,0C-0.187,-0.102 -0.071,-0.102 0,0L32.801,47.035C32.873,47.137 32.873,47.305 32.801,47.407L0,94.443" style="fill:rgb(0,105,178);"/>
                    </g>
                    <g transform="matrix(1,0,0,1,352.467,53.0968)">
                        <path d="M0,32.182C-2.989,35.78 -7.606,37.5 -12.325,36.649C-7.867,32.65 -4.704,24.14 -4.6,16.966C-4.901,16.678 -5.562,16.262 -5.562,16.262C-5.562,16.262 -5.62,16.634 -5.834,16.545C-7.562,15.834 -9.551,14.499 -10.888,12.286C-11.295,11.613 -11.676,10.804 -12,9.906C-9.371,8.245 -7.207,6.021 -5.725,3.595C-1.623,5.465 1.384,9.048 2.816,13.215C5.282,20.386 3.684,27.747 0,32.182M-22.301,38.332C-23.564,38.247 -24.701,37.613 -24.83,36.753C-24.951,35.941 -24.302,35.443 -23.455,35.459C-22.217,35.482 -20.275,36.88 -18.739,37.616C-19.81,38.185 -21.25,38.402 -22.301,38.332M-12.896,2.225C-12.378,2.204 -11.85,2.205 -11.307,2.235C-10.422,2.283 -9.567,2.402 -8.744,2.584C-9.73,4.212 -11.014,5.763 -12.763,7.058C-13.045,5.493 -13.126,3.827 -12.896,2.225M-7.679,-4.437C-6.582,-4.175 -6.459,-2.54 -7.27,-0.549C-7.702,-0.601 -8.138,-0.644 -8.578,-0.675C-9.796,-0.763 -10.977,-0.782 -12.12,-0.739C-10.922,-3.752 -8.931,-4.736 -7.679,-4.437M12.134,18.539C11.849,9.004 5.061,2.292 -3.924,0.06C-3.521,-0.943 -3.157,-2 -2.973,-2.901C-2.337,-6.014 -3.458,-8.024 -5.633,-8.403C-9.05,-9 -13.413,-5.961 -15.138,-0.473C-23.781,0.749 -29.774,5.705 -31.88,11.441C-33.954,17.091 -31.882,21.867 -28.227,23.307C-24.486,24.78 -21.016,22.772 -19.995,20.177C-20.195,20.032 -20.959,19.469 -20.959,19.469C-20.959,19.469 -21.24,19.804 -21.495,19.675C-23.616,18.599 -25.171,16.09 -24.9,12.555C-24.556,8.057 -21.153,3.909 -15.789,2.621C-16.048,4.69 -16.056,6.773 -15.923,8.857C-16.688,9.185 -17.516,9.475 -18.413,9.718C-18.56,10.576 -19.46,11.925 -19.46,11.925L-18.479,12.513C-17.51,12.321 -16.568,12.051 -15.662,11.717C-15.064,16.895 -13.896,22.05 -13.818,26.986C-13.77,30.023 -14.284,33.457 -16.002,35.538C-18.78,34.385 -20.769,32.898 -22.771,32.552C-25.587,32.063 -27.893,33.872 -27.576,36.55C-27.345,38.509 -25.107,40.288 -22.18,40.476C-19.873,40.624 -17.383,39.866 -15.688,38.891C-13.961,39.57 -11.77,40.262 -9.609,40.388C3.927,41.182 12.482,30.152 12.134,18.539" style="fill:rgb(0,66,136);"/>
                    </g>
                    <g transform="matrix(1,0,0,1,351.507,52.3922)">
                        <path d="M0,32.182C-2.989,35.78 -7.605,37.5 -12.325,36.649C-7.867,32.65 -4.704,24.14 -4.6,16.967C-6.523,16.449 -9.216,15.054 -10.888,12.286C-11.294,11.613 -11.675,10.804 -12,9.906C-9.371,8.245 -7.207,6.021 -5.725,3.596C-1.623,5.465 1.384,9.048 2.816,13.215C5.282,20.387 3.684,27.748 0,32.182M-22.301,38.332C-23.564,38.248 -24.7,37.613 -24.829,36.753C-24.951,35.941 -24.302,35.443 -23.455,35.459C-22.217,35.482 -20.275,36.88 -18.739,37.616C-19.81,38.185 -21.249,38.403 -22.301,38.332M-12.896,2.225C-12.378,2.204 -11.849,2.205 -11.306,2.235C-10.423,2.283 -9.569,2.402 -8.747,2.584C-9.734,4.203 -11.019,5.737 -12.771,7.017C-13.046,5.464 -13.123,3.813 -12.896,2.225M-7.649,-4.483C-6.527,-4.194 -6.273,-2.58 -7.144,-0.534C-7.617,-0.592 -8.096,-0.64 -8.577,-0.675C-9.795,-0.763 -10.977,-0.782 -12.119,-0.739C-10.912,-3.775 -8.897,-4.804 -7.649,-4.483M12.135,18.54C11.849,9.006 5.062,2.295 -3.919,0.061C-3.509,-0.976 -3.175,-2.053 -3.015,-3.007C-2.472,-6.23 -3.457,-8.024 -5.633,-8.403C-9.05,-9 -13.413,-5.96 -15.138,-0.473C-23.781,0.75 -29.774,5.705 -31.88,11.441C-33.954,17.091 -31.882,21.867 -28.227,23.307C-24.486,24.781 -21.016,22.772 -19.995,20.178C-22.825,19.675 -25.231,16.884 -24.9,12.555C-24.556,8.057 -21.153,3.91 -15.789,2.621C-16.045,4.67 -16.055,6.731 -15.927,8.795C-16.691,9.12 -17.517,9.407 -18.413,9.649C-18.659,11.095 -18.479,12.513 -18.479,12.513C-17.51,12.321 -16.568,12.052 -15.661,11.717C-15.064,16.896 -13.896,22.049 -13.818,26.986C-13.77,30.024 -14.284,33.458 -16.002,35.539C-18.779,34.386 -20.769,32.899 -22.771,32.552C-25.586,32.064 -27.892,33.872 -27.576,36.55C-27.345,38.51 -25.107,40.289 -22.18,40.477C-19.872,40.625 -17.383,39.867 -15.688,38.891C-13.961,39.57 -11.77,40.262 -9.608,40.388C3.927,41.182 12.482,30.153 12.135,18.54" style="fill:white;"/>
                    </g>
                    <g transform="matrix(1,0,0,1,336.715,98.4576)">
                        <path d="M0,6.205L-0.7,5.677L-1.594,3.406L-2.551,4.555L-2.551,6.205L-3.412,6.205L-4.11,5.677L-3.412,5.333L-3.412,0.528L-3.251,0L-2.551,0.528L-2.551,3.107L-0.137,0.166L0.122,0L0.822,0.528L-1.021,2.753L1.013,6.205L0,6.205Z" style="fill:rgb(0,66,136);fill-rule:nonzero;"/>
                    </g>
                    <g transform="matrix(1,0,0,1,341.89,98.4596)">
                        <path d="M0,6.203L-0.699,5.676L0,2.081L-2.543,6.203L-3.324,6.203L-4.024,5.675L-3.324,0.526L-3.163,0.001L-2.464,0.526L-2.464,4.345L0.161,0L0.861,0.526L0.861,6.203L0,6.203Z" style="fill:rgb(0,66,136);fill-rule:nonzero;"/>
                    </g>
                    <g transform="matrix(1,0,0,1,345.351,103.268)">
                        <path d="M0,-5.084L-0.695,-5.612L0.081,-6.479L0.78,-5.945L0.78,-5.084L0,-5.084ZM-0.901,1.395L-1.602,0.876L-0.743,-4.808L-0.04,-4.282L-0.04,1.395L-0.901,1.395ZM-1.773,-5.084L-2.466,-5.611L-1.691,-6.471L-0.988,-5.945L-0.988,-5.084L-1.773,-5.084Z" style="fill:rgb(0,66,136);fill-rule:nonzero;"/>
                    </g>
                    <g transform="matrix(1,0,0,1,349.114,101.319)">
                        <path d="M0,0.84L-1.347,0.84L-1.347,2.57L0,2.57C0.574,2.57 0.934,2.236 0.934,1.701C0.934,1.174 0.574,0.84 0,0.84M-0.071,-1.56L-1.347,-1.56L-1.347,-0.096L-0.071,-0.096C0.503,-0.096 0.643,-0.237 0.643,-0.747C0.643,-1.257 0.503,-1.56 -0.071,-1.56M0.088,3.343L-2.208,3.343L-2.908,2.817L-2.208,-2.333L0.469,-2.503C0.469,-2.503 0.947,-2.182 1.246,-1.915C1.545,-1.648 1.715,-1.265 1.715,-0.803C1.715,-0.228 1.452,0.186 0.949,0.433C1.508,0.696 1.803,1.103 1.803,1.749C1.803,2.729 1.148,3.343 0.088,3.343" style="fill:rgb(0,66,136);fill-rule:nonzero;"/>
                    </g>
                    <g transform="matrix(1,0,0,1,336.015,98.4583)">
                        <path d="M0,5.677L-1.595,2.879L-2.551,4.027L-2.551,5.677L-3.412,5.677L-3.412,0L-2.551,0L-2.551,2.854L-0.231,0L0.821,0L-1.021,2.225L1.013,5.677L0,5.677Z" style="fill:white;fill-rule:nonzero;"/>
                    </g>
                    <g transform="matrix(1,0,0,1,341.19,98.4583)">
                        <path d="M0,5.677L0,1.555L-2.543,5.677L-3.325,5.677L-3.325,0L-2.464,0L-2.464,4.115L0.071,0L0.861,0L0.861,5.677L0,5.677Z" style="fill:white;fill-rule:nonzero;"/>
                    </g>
                    <g transform="matrix(1,0,0,1,0,72.317)">
                        <path d="M344.65,24.479L345.428,24.479L345.428,25.34L344.65,25.34L344.65,24.479ZM343.749,26.142L344.61,26.142L344.61,31.819L343.749,31.819L343.749,26.142ZM342.884,24.479L343.661,24.479L343.661,25.34L342.884,25.34L342.884,24.479Z" style="fill:white;fill-rule:nonzero;"/>
                    </g>
                    <g transform="matrix(1,0,0,1,348.413,100.962)">
                        <path d="M0,0.67L-1.347,0.67L-1.347,2.4L0,2.4C0.574,2.4 0.934,2.066 0.934,1.531C0.934,1.004 0.574,0.67 0,0.67M-0.071,-1.73L-1.347,-1.73L-1.347,-0.103L-0.071,-0.103C0.503,-0.103 0.854,-0.407 0.854,-0.916C0.854,-1.427 0.503,-1.73 -0.071,-1.73M0.088,3.173L-2.208,3.173L-2.208,-2.503L0,-2.503C1.037,-2.503 1.715,-1.897 1.715,-0.973C1.715,-0.398 1.451,0.016 0.949,0.263C1.508,0.526 1.802,0.933 1.802,1.579C1.802,2.559 1.148,3.173 0.088,3.173" style="fill:white;fill-rule:nonzero;"/>
                    </g>
                    <g transform="matrix(1,0,0,1,338.127,11.0866)">
                        <path d="M0,-4.735L-6.358,-4.735C-7.241,-7.471 -8.235,-10.555 -8.305,-10.778C-8.432,-11.186 -8.943,-11.192 -9.071,-10.779C-9.134,-10.579 -10.171,-7.388 -11.034,-4.735L-17.393,-4.735C-17.821,-4.735 -17.967,-4.252 -17.628,-4.006C-17.46,-3.884 -14.745,-1.914 -12.483,-0.275C-13.345,2.377 -14.378,5.557 -14.442,5.756C-14.575,6.164 -14.16,6.452 -13.822,6.205C-13.655,6.084 -10.955,4.119 -8.7,2.477C-6.443,4.12 -3.737,6.09 -3.569,6.211C-3.231,6.457 -2.816,6.17 -2.949,5.762C-3.014,5.562 -4.049,2.379 -4.91,-0.273C-2.648,-1.913 0.068,-3.884 0.236,-4.006C0.575,-4.252 0.429,-4.735 0,-4.735" style="fill:rgb(232,178,31);fill-rule:nonzero;"/>
                    </g>
                    <g transform="matrix(-0.809622,-0.586952,-0.586952,0.809622,321.97,5.89128)">
                        <path d="M-6.596,0.818L-1.378,0.818L0.492,1.826L-5.862,1.828L-6.596,0.818Z" style="fill:rgb(198,137,23);fill-rule:nonzero;"/>
                    </g>
                    <g transform="matrix(0.587886,-0.808944,-0.808944,-0.587886,333.709,5.55862)">
                        <path d="M-3.031,1.104L-1.782,1.104L1.962,6.231L0.038,5.31L-3.031,1.104Z" style="fill:rgb(198,137,23);fill-rule:nonzero;"/>
                    </g>
                    <g transform="matrix(-0.431905,0.901919,0.901919,0.431905,327.061,13.0751)">
                        <path d="M2.868,-0.665L4.994,-0.665L-0.581,2.345L-1.707,1.807L2.868,-0.665Z" style="fill:rgb(198,137,23);fill-rule:nonzero;"/>
                    </g>
                    <g transform="matrix(1,0,0,1,338.526,17.3181)">
                        <path d="M0,-10.715C-0.101,-10.68 -1.658,-10.161 -2.27,-9.957L-2.269,-9.957L-6.495,-6.892L-4.886,-1.938C-4.378,-1.236 -3.488,-0.008 -3.481,0C-3.353,-0.092 -3.281,-0.266 -3.348,-0.469C-3.412,-0.669 -4.447,-3.853 -5.309,-6.505C-3.047,-8.145 -0.33,-10.115 -0.162,-10.237C0.016,-10.366 0.06,-10.56 0,-10.715" style="fill:rgb(198,137,23);fill-rule:nonzero;"/>
                    </g>
                    <g transform="matrix(1,0,0,1,360.971,11.0866)">
                        <path d="M0,-4.735L-6.357,-4.735C-7.241,-7.471 -8.235,-10.555 -8.305,-10.778C-8.432,-11.186 -8.943,-11.192 -9.071,-10.779C-9.134,-10.579 -10.171,-7.388 -11.033,-4.735L-17.393,-4.735C-17.821,-4.735 -17.967,-4.252 -17.628,-4.006C-17.46,-3.884 -14.744,-1.914 -12.483,-0.275C-13.345,2.377 -14.378,5.557 -14.442,5.756C-14.575,6.164 -14.16,6.452 -13.822,6.205C-13.655,6.084 -10.955,4.119 -8.7,2.477C-6.443,4.12 -3.737,6.09 -3.569,6.211C-3.231,6.457 -2.816,6.17 -2.949,5.762C-3.014,5.562 -4.049,2.379 -4.91,-0.273C-2.648,-1.913 0.068,-3.884 0.236,-4.006C0.574,-4.252 0.429,-4.735 0,-4.735" style="fill:rgb(232,178,31);fill-rule:nonzero;"/>
                    </g>
                    <g transform="matrix(-0.809688,-0.586861,-0.586861,0.809688,344.813,5.89147)">
                        <path d="M-6.596,0.818L-1.377,0.818L0.492,1.826L-5.862,1.828L-6.596,0.818Z" style="fill:rgb(198,137,23);fill-rule:nonzero;"/>
                    </g>
                    <g transform="matrix(0.588933,-0.808182,-0.808182,-0.588933,356.55,5.56385)">
                        <path d="M-3.027,1.102L-1.777,1.102L1.96,6.234L0.037,5.311L-3.027,1.102Z" style="fill:rgb(198,137,23);fill-rule:nonzero;"/>
                    </g>
                    <g transform="matrix(-0.431522,0.902102,0.902102,0.431522,349.905,13.0741)">
                        <path d="M2.869,-0.666L4.994,-0.666L-0.579,2.346L-1.705,1.808L2.869,-0.666Z" style="fill:rgb(198,137,23);fill-rule:nonzero;"/>
                    </g>
                    <g transform="matrix(1,0,0,1,361.37,17.3181)">
                        <path d="M0,-10.715C-0.101,-10.68 -1.657,-10.161 -2.27,-9.957L-2.269,-9.957L-6.495,-6.892L-4.886,-1.938C-4.378,-1.236 -3.487,-0.008 -3.481,0C-3.353,-0.092 -3.281,-0.266 -3.348,-0.469C-3.412,-0.669 -4.447,-3.853 -5.309,-6.505C-3.047,-8.145 -0.33,-10.115 -0.162,-10.237C0.015,-10.366 0.06,-10.56 0,-10.715" style="fill:rgb(198,137,23);fill-rule:nonzero;"/>
                    </g>
                    <g transform="matrix(1,0,0,1,0,17.992)">
                        <rect x="270.165" y="12.8" width="1.417" height="85.023" style="fill:white;"/>
                    </g>
                </g>
            </g>
        </g>
    </g>
</svg>
