<?xml version="1.0" encoding="UTF-8" standalone="no"?>
<!DOCTYPE svg PUBLIC "-//W3C//DTD SVG 1.1//EN" "http://www.w3.org/Graphics/SVG/1.1/DTD/svg11.dtd">
<svg width="100%" height="100%" viewBox="0 0 608 365" version="1.1" xmlns="http://www.w3.org/2000/svg" xmlns:xlink="http://www.w3.org/1999/xlink" xml:space="preserve" xmlns:serif="http://www.serif.com/" style="fill-rule:evenodd;clip-rule:evenodd;stroke-linejoin:round;stroke-miterlimit:2;">
    <g transform="matrix(1,0,0,1,2.27374e-13,-8568)">
        <g id="Artboard2" transform="matrix(0.802413,0,0,0.957694,1061.37,362.079)">
            <rect x="-1322.73" y="8568.42" width="757.715" height="381.124" style="fill:none;"/>
            <g transform="matrix(2.53353,0,0,3.79634,-1617.02,6115.97)">
                <g transform="matrix(7.83824,0,0,4.38279,-21956.9,-2597.36)">
                    <g transform="matrix(12,0,0,12,2820.22,753.051)">
                        <path d="M0.156,-0L0.156,-0.542L0,-0.542L0,-0.636C0.026,-0.637 0.049,-0.638 0.069,-0.64C0.088,-0.642 0.106,-0.646 0.121,-0.652C0.136,-0.658 0.149,-0.667 0.16,-0.678C0.17,-0.689 0.18,-0.705 0.189,-0.725L0.294,-0.725L0.294,-0L0.156,-0Z" style="fill:white;fill-rule:nonzero;"/>
                    </g>
                    <g transform="matrix(12,0,0,12,2824.65,753.051)">
                        <path d="M-0.003,-0.725L0.53,-0.725L0.53,-0.609C0.483,-0.561 0.441,-0.515 0.406,-0.47C0.371,-0.425 0.341,-0.378 0.317,-0.33C0.293,-0.282 0.274,-0.231 0.261,-0.178C0.247,-0.125 0.238,-0.065 0.235,-0L0.083,-0C0.086,-0.063 0.096,-0.123 0.113,-0.18C0.13,-0.237 0.153,-0.291 0.181,-0.342C0.208,-0.393 0.24,-0.44 0.276,-0.485C0.312,-0.53 0.35,-0.571 0.391,-0.609L-0.003,-0.609L-0.003,-0.725Z" style="fill:white;fill-rule:nonzero;"/>
                    </g>
                    <g transform="matrix(12,0,0,12,2830.77,753.051)">
                        <path d="M0.332,0.013C0.283,0.013 0.241,0.004 0.205,-0.015C0.168,-0.034 0.138,-0.06 0.114,-0.093C0.089,-0.126 0.071,-0.166 0.059,-0.212C0.046,-0.258 0.04,-0.309 0.04,-0.364C0.04,-0.419 0.046,-0.469 0.059,-0.515C0.071,-0.561 0.089,-0.6 0.114,-0.634C0.138,-0.667 0.168,-0.692 0.205,-0.711C0.241,-0.729 0.283,-0.738 0.332,-0.738C0.38,-0.738 0.422,-0.729 0.459,-0.711C0.495,-0.692 0.525,-0.667 0.55,-0.634C0.574,-0.6 0.592,-0.561 0.605,-0.515C0.617,-0.469 0.623,-0.419 0.623,-0.364C0.623,-0.309 0.617,-0.258 0.605,-0.212C0.592,-0.166 0.574,-0.126 0.55,-0.093C0.525,-0.06 0.495,-0.034 0.459,-0.015C0.422,0.004 0.38,0.013 0.332,0.013ZM0.332,-0.091C0.381,-0.091 0.419,-0.115 0.444,-0.162C0.469,-0.209 0.482,-0.277 0.482,-0.364C0.482,-0.451 0.469,-0.518 0.444,-0.565C0.419,-0.611 0.381,-0.634 0.332,-0.634C0.283,-0.634 0.245,-0.611 0.22,-0.565C0.194,-0.518 0.181,-0.451 0.181,-0.364C0.181,-0.277 0.194,-0.209 0.22,-0.162C0.245,-0.115 0.283,-0.091 0.332,-0.091Z" style="fill:white;fill-rule:nonzero;"/>
                    </g>
                    <g transform="matrix(12,0,0,12,2841.43,753.051)">
                        <path d="M0.247,-0.244C0.252,-0.223 0.26,-0.203 0.269,-0.184C0.278,-0.165 0.289,-0.149 0.303,-0.136C0.317,-0.122 0.334,-0.111 0.354,-0.103C0.373,-0.095 0.396,-0.091 0.423,-0.091C0.442,-0.091 0.461,-0.093 0.48,-0.098C0.498,-0.102 0.515,-0.11 0.53,-0.121C0.545,-0.132 0.559,-0.146 0.571,-0.165C0.582,-0.183 0.591,-0.206 0.596,-0.235L0.719,-0.235C0.713,-0.194 0.702,-0.159 0.685,-0.128C0.668,-0.097 0.647,-0.072 0.621,-0.051C0.595,-0.029 0.565,-0.014 0.532,-0.003C0.498,0.008 0.462,0.013 0.423,0.013C0.344,0.013 0.278,-0.01 0.226,-0.055C0.174,-0.099 0.139,-0.163 0.122,-0.244L-0.011,-0.244L0.043,-0.326L0.111,-0.326C0.11,-0.332 0.11,-0.338 0.11,-0.345L0.11,-0.391L-0.011,-0.391L0.043,-0.472L0.12,-0.472C0.128,-0.514 0.141,-0.551 0.159,-0.584C0.177,-0.617 0.199,-0.645 0.226,-0.668C0.252,-0.691 0.282,-0.708 0.316,-0.72C0.35,-0.732 0.387,-0.738 0.427,-0.738C0.466,-0.738 0.501,-0.732 0.535,-0.721C0.568,-0.71 0.596,-0.693 0.622,-0.673C0.647,-0.652 0.667,-0.626 0.683,-0.595C0.698,-0.564 0.709,-0.53 0.714,-0.491L0.592,-0.491C0.582,-0.544 0.562,-0.581 0.533,-0.602C0.503,-0.623 0.466,-0.634 0.423,-0.634C0.396,-0.634 0.373,-0.63 0.353,-0.622C0.333,-0.614 0.316,-0.603 0.301,-0.589C0.286,-0.574 0.274,-0.557 0.265,-0.537C0.256,-0.517 0.249,-0.495 0.244,-0.472L0.516,-0.472L0.462,-0.391L0.234,-0.391L0.234,-0.346C0.234,-0.339 0.234,-0.333 0.235,-0.326L0.43,-0.326L0.376,-0.244L0.247,-0.244Z" style="fill:white;fill-rule:nonzero;"/>
                    </g>
                </g>
                <g transform="matrix(4.24467,0,0,2.37343,-11796.7,-1050.89)">
                    <g transform="matrix(12,0,0,12,2820.22,753.051)">
                        <path d="M0.065,-0.725L0.347,-0.725C0.379,-0.725 0.411,-0.722 0.442,-0.717C0.473,-0.711 0.501,-0.701 0.527,-0.687C0.552,-0.672 0.572,-0.653 0.588,-0.629C0.603,-0.604 0.611,-0.573 0.611,-0.536C0.611,-0.519 0.608,-0.502 0.604,-0.487C0.599,-0.471 0.592,-0.456 0.584,-0.443C0.576,-0.43 0.567,-0.418 0.558,-0.408C0.548,-0.397 0.538,-0.389 0.529,-0.383C0.543,-0.376 0.557,-0.369 0.57,-0.36C0.583,-0.351 0.594,-0.339 0.604,-0.326C0.614,-0.313 0.622,-0.297 0.628,-0.279C0.634,-0.26 0.637,-0.239 0.637,-0.214C0.637,-0.175 0.63,-0.141 0.615,-0.115C0.6,-0.088 0.579,-0.066 0.554,-0.049C0.529,-0.032 0.499,-0.019 0.466,-0.012C0.432,-0.004 0.396,-0 0.359,-0L0.065,-0L0.065,-0.725ZM0.208,-0.112L0.366,-0.112C0.408,-0.112 0.439,-0.121 0.46,-0.138C0.481,-0.155 0.491,-0.181 0.491,-0.214C0.491,-0.248 0.48,-0.274 0.459,-0.292C0.438,-0.309 0.405,-0.318 0.36,-0.318L0.208,-0.318L0.208,-0.112ZM0.208,-0.426L0.356,-0.426C0.39,-0.426 0.417,-0.434 0.436,-0.45C0.455,-0.466 0.464,-0.49 0.464,-0.522C0.464,-0.551 0.454,-0.573 0.435,-0.589C0.416,-0.605 0.389,-0.613 0.356,-0.613L0.208,-0.613L0.208,-0.426Z" style="fill:white;fill-rule:nonzero;"/>
                    </g>
                    <g transform="matrix(12,0,0,12,2828.19,753.051)">
                        <path d="M0.184,-0.363C0.184,-0.32 0.19,-0.283 0.201,-0.25C0.212,-0.217 0.226,-0.19 0.245,-0.168C0.264,-0.146 0.286,-0.129 0.311,-0.118C0.336,-0.107 0.363,-0.101 0.391,-0.101C0.419,-0.101 0.446,-0.107 0.471,-0.118C0.496,-0.129 0.518,-0.146 0.537,-0.168C0.556,-0.19 0.571,-0.217 0.582,-0.25C0.592,-0.283 0.598,-0.32 0.598,-0.363C0.598,-0.406 0.592,-0.443 0.582,-0.476C0.571,-0.508 0.556,-0.535 0.537,-0.557C0.518,-0.579 0.496,-0.596 0.471,-0.607C0.446,-0.618 0.419,-0.624 0.391,-0.624C0.363,-0.624 0.336,-0.618 0.311,-0.607C0.286,-0.596 0.264,-0.579 0.245,-0.557C0.226,-0.535 0.212,-0.508 0.201,-0.476C0.19,-0.443 0.184,-0.406 0.184,-0.363ZM0.746,-0.363C0.746,-0.307 0.738,-0.256 0.721,-0.21C0.704,-0.163 0.681,-0.124 0.65,-0.091C0.618,-0.057 0.581,-0.032 0.538,-0.014C0.494,0.004 0.445,0.013 0.391,0.013C0.337,0.013 0.288,0.004 0.245,-0.014C0.201,-0.032 0.164,-0.057 0.133,-0.091C0.101,-0.124 0.078,-0.163 0.061,-0.21C0.044,-0.256 0.036,-0.307 0.036,-0.363C0.036,-0.419 0.044,-0.47 0.061,-0.517C0.078,-0.563 0.101,-0.602 0.133,-0.635C0.164,-0.668 0.201,-0.693 0.245,-0.711C0.288,-0.729 0.337,-0.738 0.391,-0.738C0.445,-0.738 0.494,-0.729 0.538,-0.711C0.581,-0.693 0.618,-0.668 0.65,-0.635C0.681,-0.602 0.704,-0.563 0.721,-0.517C0.738,-0.47 0.746,-0.419 0.746,-0.363Z" style="fill:white;fill-rule:nonzero;"/>
                    </g>
                    <g transform="matrix(12,0,0,12,2837.57,753.051)">
                        <path d="M0.49,-0L0.2,-0.553L0.2,-0L0.065,-0L0.065,-0.725L0.251,-0.725L0.541,-0.172L0.541,-0.725L0.676,-0.725L0.676,-0L0.49,-0Z" style="fill:white;fill-rule:nonzero;"/>
                    </g>
                    <g transform="matrix(12,0,0,12,2846.46,753.051)">
                        <path d="M0.197,-0.725L0.197,-0.306C0.197,-0.274 0.199,-0.245 0.203,-0.22C0.207,-0.195 0.215,-0.173 0.227,-0.156C0.238,-0.138 0.254,-0.124 0.275,-0.115C0.295,-0.106 0.322,-0.101 0.355,-0.101C0.388,-0.101 0.414,-0.106 0.435,-0.115C0.456,-0.124 0.472,-0.138 0.483,-0.156C0.494,-0.173 0.501,-0.195 0.505,-0.22C0.509,-0.245 0.511,-0.274 0.511,-0.306L0.511,-0.725L0.654,-0.725L0.654,-0.307C0.654,-0.247 0.648,-0.197 0.637,-0.156C0.626,-0.115 0.608,-0.083 0.584,-0.058C0.56,-0.033 0.529,-0.015 0.491,-0.004C0.453,0.008 0.408,0.013 0.355,0.013C0.302,0.013 0.256,0.008 0.219,-0.004C0.181,-0.015 0.15,-0.033 0.125,-0.058C0.1,-0.083 0.082,-0.115 0.071,-0.156C0.06,-0.197 0.054,-0.247 0.054,-0.307L0.054,-0.725L0.197,-0.725Z" style="fill:white;fill-rule:nonzero;"/>
                    </g>
                    <g transform="matrix(12,0,0,12,2854.96,753.051)">
                        <path d="M0.258,-0.318C0.229,-0.324 0.201,-0.332 0.175,-0.343C0.148,-0.354 0.125,-0.368 0.106,-0.385C0.086,-0.402 0.07,-0.422 0.059,-0.446C0.047,-0.469 0.041,-0.497 0.041,-0.528C0.041,-0.565 0.05,-0.596 0.068,-0.623C0.085,-0.649 0.108,-0.671 0.136,-0.688C0.163,-0.705 0.194,-0.717 0.229,-0.726C0.263,-0.734 0.297,-0.738 0.33,-0.738C0.367,-0.738 0.403,-0.733 0.437,-0.722C0.47,-0.711 0.5,-0.696 0.526,-0.677C0.552,-0.657 0.573,-0.633 0.589,-0.605C0.604,-0.577 0.613,-0.546 0.615,-0.511L0.477,-0.511C0.474,-0.532 0.468,-0.55 0.458,-0.565C0.448,-0.579 0.436,-0.591 0.422,-0.6C0.408,-0.608 0.392,-0.615 0.375,-0.619C0.358,-0.622 0.341,-0.624 0.324,-0.624C0.307,-0.624 0.291,-0.622 0.274,-0.619C0.257,-0.616 0.242,-0.611 0.229,-0.604C0.216,-0.596 0.205,-0.587 0.197,-0.576C0.188,-0.564 0.184,-0.55 0.184,-0.534C0.184,-0.509 0.194,-0.489 0.213,-0.474C0.232,-0.459 0.256,-0.449 0.285,-0.444L0.38,-0.427C0.409,-0.422 0.439,-0.414 0.469,-0.405C0.498,-0.396 0.525,-0.383 0.549,-0.367C0.572,-0.35 0.591,-0.329 0.606,-0.304C0.621,-0.278 0.628,-0.246 0.628,-0.209C0.628,-0.172 0.62,-0.139 0.603,-0.112C0.586,-0.084 0.563,-0.061 0.536,-0.042C0.508,-0.023 0.476,-0.01 0.442,-0.001C0.407,0.009 0.371,0.013 0.334,0.013C0.289,0.013 0.249,0.007 0.213,-0.005C0.176,-0.016 0.145,-0.033 0.118,-0.055C0.091,-0.076 0.07,-0.102 0.054,-0.134C0.038,-0.165 0.028,-0.2 0.025,-0.239L0.163,-0.239C0.167,-0.212 0.174,-0.19 0.185,-0.173C0.196,-0.155 0.209,-0.141 0.225,-0.13C0.24,-0.119 0.258,-0.112 0.278,-0.108C0.297,-0.103 0.318,-0.101 0.339,-0.101C0.355,-0.101 0.372,-0.103 0.389,-0.106C0.406,-0.109 0.421,-0.115 0.436,-0.123C0.45,-0.13 0.462,-0.14 0.471,-0.154C0.48,-0.167 0.484,-0.183 0.484,-0.202C0.484,-0.217 0.481,-0.231 0.474,-0.242C0.467,-0.253 0.458,-0.262 0.446,-0.27C0.434,-0.277 0.42,-0.284 0.404,-0.289C0.387,-0.294 0.369,-0.298 0.35,-0.301L0.258,-0.318Z" style="fill:white;fill-rule:nonzero;"/>
                    </g>
                </g>
            </g>
        </g>
        <g id="Layer-1" serif:id="Layer 1">
        </g>
    </g>
</svg>
